<svg xmlns="http://www.w3.org/2000/svg" xmlns:xlink="http://www.w3.org/1999/xlink" viewBox="0 0 322.5523 95.788446" height="95.788" width="322.552"><defs><linearGradient id="c"><stop stop-opacity="0" stop-color="#326ea4" offset="0"/><stop stop-opacity="0" stop-color="#326ea4" offset=".25"/><stop stop-opacity=".388" stop-color="#285680" offset=".324"/><stop stop-opacity=".388" stop-color="#285680" offset=".467"/><stop stop-opacity="0" stop-color="#326ea4" offset=".535"/><stop stop-opacity="0" stop-color="#326ea4" offset=".679"/><stop stop-opacity=".388" stop-color="#285680" offset=".753"/><stop stop-opacity=".388" stop-color="#285680" offset="1"/></linearGradient><linearGradient id="b"><stop stop-opacity=".961" stop-color="#6f8849" offset="0"/><stop stop-opacity=".961" stop-color="#6f8849" offset=".429"/><stop stop-opacity=".961" stop-color="#60763f" offset=".571"/><stop stop-opacity=".961" stop-color="#60763f" offset="1"/></linearGradient><linearGradient id="a"><stop stop-color="#b3a25a" offset="0"/><stop stop-color="#b3a25a" offset=".429"/><stop stop-color="#998a46" offset=".571"/><stop stop-color="#998a46" offset="1"/></linearGradient><clipPath id="f"><path stroke-width="5" fill-opacity=".243" fill="#ff2c2c" d="M15.002 1046.663c.018.21-.124.423-.433.583l-5.515 2.844c-.582.303-1.522.302-2.108 0l-5.514-2.844c-.308-.16-.448-.373-.43-.583v-2.118c-.018-.21.122-.422.43-.583l5.514-2.844c.586-.302 1.526-.303 2.108 0l5.515 2.844c.309.16.45.373.433.583z"/></clipPath><clipPath id="e"><path stroke-width="5" fill-opacity=".243" fill="#ff2c2c" d="M8 1040.379c-.38 0-.762.085-1.055.253l-5.515 3.178c-.308.18-.447.416-.43.65-.017.235.122.474.43.653l5.515 3.178c.586.337 1.525.339 2.108 0l5.513-3.178c.31-.178.453-.418.436-.653.017-.234-.127-.472-.436-.65l-5.513-3.178c-.291-.17-.672-.254-1.053-.254z"/></clipPath><clipPath id="h"><path stroke-width="5" fill-opacity=".243" fill="#ff2c2c" d="M8 1039.223c-.38 0-.762.085-1.055.254l-5.515 3.178c-.308.18-.447.416-.43.65-.017.235.122.473.43.653l5.515 3.177c.586.338 1.525.34 2.108 0l5.513-3.177c.31-.179.453-.418.436-.653.017-.234-.127-.472-.436-.65l-5.513-3.178c-.291-.17-.672-.254-1.053-.254z"/></clipPath><clipPath id="k"><use height="100%" width="100%" transform="translate(0 2.308)" xlink:href="#path5683"/></clipPath><filter color-interpolation-filters="sRGB" height="1.278" y="-.139" width="1.133" x="-.066" id="j"><feGaussianBlur stdDeviation=".388"/></filter><linearGradient gradientTransform="matrix(5 0 0 5 -9.656 -15.001)" gradientUnits="userSpaceOnUse" y2="15.685" x2="19.937" y1="15.685" x1="5.932" id="d" xlink:href="#a"/><linearGradient gradientUnits="userSpaceOnUse" y2="1045.726" x2="15.004" y1="1045.726" x1="1" id="g" xlink:href="#b"/><linearGradient y2="1041.39" x2="15.004" y1="1041.39" x1="1" gradientTransform="matrix(5 0 0 5 15.007 -5174.552)" gradientUnits="userSpaceOnUse" id="i" xlink:href="#c"/><clipPath id="m"><path fill-rule="evenodd" fill-opacity=".375" fill="#a43232" d="M54.982 47.584c-.834 0-1.65.24-2.474.72l-10.82 6.247h-.01c-.81.555-1.911.603-3.147.1l-1.472-.85 12.675 7.323c7.58 3.661 18.649-6.573 18.649-6.573l-10.81-6.246c-.903-.481-1.756-.721-2.59-.721z"/></clipPath><filter color-interpolation-filters="sRGB" id="l" x="-.259" width="1.518" y="-.514" height="2.028"><feGaussianBlur stdDeviation="1.957"/></filter></defs><path enable-background="accumulate" fill="url(#d)" overflow="visible" color="#000" style="text-decoration-line:none;text-decoration-style:solid;text-decoration-color:#000;isolation:auto;mix-blend-mode:normal" d="M38.157 41.063L22.17 50.282c-1.538.896-2.245 2.08-2.158 3.252V65.37c-.087 1.171.62 2.356 2.158 3.252L49.74 84.52c2.927 1.687 7.626 1.696 10.537 0l27.578-15.898c1.545-.891 2.254-2.08 2.168-3.252V53.534c.086-1.173-.623-2.361-2.168-3.252l-15.996-9.219H38.157z"/><rect enable-background="accumulate" fill="#b2a257" overflow="visible" color="#000" ry="0" y="1040.233" x=".997" height="8.485" width="14.004" style="text-decoration-line:none;text-decoration-style:solid;text-decoration-color:#000;isolation:auto;mix-blend-mode:normal" clip-path="url(#e)" transform="matrix(5 0 0 5 15.007 -5168.778)"/><g transform="matrix(5 0 0 5 15.007 -5174.552)"><g clip-path="url(#f)" transform="matrix(1 0 0 1.11765 0 -124.192)"><rect enable-background="accumulate" fill="url(#g)" overflow="visible" color="#000" ry="0" y="1040.818" x="1" height="9.818" width="14.004" style="text-decoration-line:none;text-decoration-style:solid;text-decoration-color:#000;isolation:auto;mix-blend-mode:normal"/></g><rect enable-background="accumulate" fill="#748d4d" overflow="visible" color="#000" clip-path="url(#h)" ry="0" y="1039.08" x="1" height="9.24" width="14.004" style="text-decoration-line:none;text-decoration-style:solid;text-decoration-color:#000;isolation:auto;mix-blend-mode:normal"/></g><path enable-background="accumulate" fill-opacity=".941" fill="#326ea4" overflow="visible" color="#000" style="text-decoration-line:none;text-decoration-style:solid;text-decoration-color:#000;isolation:auto;mix-blend-mode:normal" d="M55.006 10.014c-1.904.001-3.81.426-5.274 1.27L22.158 27.176c-1.538.897-2.237 2.085-2.15 3.256v11.553c-.083 1.122.576 2.256 1.984 3.137l9.668 5.57 6.871 3.959c1.236.504 2.337.455 3.147-.1h.01l10.82-6.246c1.648-.961 3.26-.961 5.064 0l10.81 6.246h.01c.753.515 1.763.61 2.893.215l10.596-6.097 6.295-3.666c1.293-.861 1.917-1.944 1.838-3.02l-.002-11.55c.086-1.174-.625-2.366-2.17-3.257L60.27 11.284c-1.456-.849-3.36-1.271-5.264-1.27z"/><path enable-background="accumulate" fill-opacity=".519" fill="#629bc9" overflow="visible" color="#000" style="text-decoration-line:none;text-decoration-style:solid;text-decoration-color:#000;isolation:auto;mix-blend-mode:normal" d="M55.008 10c-1.904 0-3.81.416-5.273 1.26L22.16 27.157c-1.538.896-2.236 2.08-2.149 3.251-.083 1.122.574 2.253 1.983 3.135l9.667 5.576 6.874 3.954c1.235.504 2.335.454 3.144-.096h.01l10.82-6.241c1.648-.962 3.262-.962 5.067 0l10.81 6.24h.01c.752.512 1.76.607 2.89.214l10.594-6.093 6.289-3.672c1.293-.861 1.924-1.941 1.845-3.017.086-1.173-.632-2.36-2.177-3.251L60.27 11.26c-1.455-.849-3.359-1.261-5.263-1.26z"/><path enable-background="accumulate" fill="url(#i)" overflow="visible" color="#000" style="text-decoration-line:none;text-decoration-style:solid;text-decoration-color:#000;isolation:auto;mix-blend-mode:normal" d="M20.008 30.432v11.553c-.083 1.122.576 2.256 1.984 3.137l9.668 5.57 6.871 3.959c1.236.504 2.337.455 3.147-.1h.01l10.82-6.246c1.648-.961 3.26-.961 5.064 0l10.81 6.246h.01c.753.515 1.763.61 2.893.215l10.596-6.097 6.295-3.666c1.293-.861 1.917-1.944 1.838-3.02l-.002-11.16c-.09.935-.713 1.853-1.84 2.603l-6.29 3.672-10.595 6.094c-1.13.393-2.138.298-2.89-.215h-.01l-10.81-6.24c-1.806-.962-3.42-.962-5.07 0l-10.82 6.242h-.01c-.809.55-1.908.6-3.144.096l-6.875-3.955-9.668-5.576c-1.398-.876-2.055-1.998-1.982-3.112z"/><path filter="url(#j)" fill="#a6c5df" opacity=".245" d="M8 1039.225c-.38 0-.762.083-1.055.252l-5.515 3.18c-.308.18-.447.416-.43.65-.017.225.115.451.396.627l1.934 1.115 1.375.791c.247.101.467.091.629-.019h.002l2.164-1.248c.33-.192.653-.192 1.014 0l2.162 1.248h.002c.15.103.352.122.578.043l2.119-1.219 1.258-.734c.258-.172.385-.389.369-.604.017-.234-.126-.472-.436-.65l-5.513-3.18c-.291-.17-.672-.252-1.053-.252z" clip-path="url(#k)" transform="translate(.002 -1035.495)"/><g style="line-height:125%;-inkscape-font-specification:'Titillium Web Ultra-Light'" font-weight="200" font-size="62.5" font-family="Titillium Web" letter-spacing="0" word-spacing="0" fill="#444"><path d="M107.827 32.213h2.313l7.937 29.25h.688l9.25-28.625h2.375l9.25 28.625h.687l7.938-29.25h2.312l-8.438 31.25h-4.25l-8.687-28-8.688 28h-4.25l-8.437-31.25zM175.71 61.588l1.875-.125.125 2q-7 .563-11.562.563-6.625-.063-9.188-4-2.562-4-2.562-12.188 0-16.187 12.625-16.187 5.938 0 8.875 3.562 3 3.563 3 11.438v2.062H156.71q0 6.75 2.125 10.063 2.125 3.25 7.063 3.25t9.813-.438zm-19-14.875h19.875q0-7.062-2.312-10.062-2.25-3-7.25-3-10.313 0-10.313 13.062zM202.213 34.213h-11.375v16.375q0 7.188 1 9.375 1.063 2.125 4.75 2.125l6.125-.5.188 2q-4.125.5-6.313.5-4.437 0-6.187-2.25-1.75-2.312-1.75-8.875v-18.75h-4.938v-2h4.938V22.026h2.187v10.187h11.375v2zM210.334 63.463V17.838h2.187v45.625h-2.187zM241.603 41.4v18q.25 2.25 4.688 2.626l-.125 1.937q-4.563 0-6.438-2.625-6.375 2.688-12.625 2.688-3.875 0-6.062-2.313-2.125-2.312-2.125-6.562 0-4.313 2.062-6.563 2.063-2.25 6.563-2.687l11.875-1.25V41.4q0-4-1.75-5.813-1.688-1.812-5.188-1.812-3.562 0-9.875.812l-1.937.25-.188-2.062q7-1.125 12-1.125 9.125 0 9.125 9.75zm-13.812 6.438q-3.563.375-5.063 2.063-1.5 1.687-1.5 5.062t1.5 5.25q1.563 1.813 4.313 1.813t5.812-.625q3.063-.688 4.813-1.313l1.75-.625V46.651l-11.625 1.187zM253.307 63.463h-2.188v-31.25h2.188v2.5q5.562-3.062 11.375-3.062 5.812 0 7.812 3.187 2 3.125 2 12.375v16.25h-2.187V47.338q0-8.25-1.5-10.937-1.5-2.75-6.563-2.75-2.5 0-5.25.812-2.687.75-4.187 1.5l-1.5.813v26.687zM303.527 17.838v45.625h-2.187v-2.625q-1.813 1.188-5.063 2.188-3.25 1-5.312 1-2 0-3.125-.188-1.063-.125-2.688-.937-1.625-.875-2.687-2.438-1-1.562-1.813-4.687-.75-3.125-.75-7.438 0-8.5 2.875-12.562 2.938-4.125 10.313-4.125 3.562 0 8.25.75V17.838h2.187zM285.09 59.963q1.375 1.25 2.562 1.688 1.25.375 3.25.375t4.688-.813q2.75-.812 4.25-1.625l1.5-.812V34.4q-4.875-.75-8.25-.75-6.313 0-8.625 3.562-2.25 3.563-2.25 11.125 0 9 2.875 11.625z"/></g><path filter="url(#l)" fill-rule="evenodd" fill-opacity=".601" fill="#596f3a" d="M55.47 45.787L45.19 50.06l-5.755 4.813c1.891.478 7.765-2.254 8.912-2.916l5.097-3.013c2.114-1.22 3.157-.957 4.128-.64-.902-.48-1.268-2.517-2.102-2.517z" clip-path="url(#m)"/></svg>