<svg xmlns="http://www.w3.org/2000/svg" xmlns:xlink="http://www.w3.org/1999/xlink" width="322.552" height="95.788" viewBox="0 0 322.5523 95.788446"><defs><linearGradient id="e"><stop offset="0" stop-color="#326ea4" stop-opacity="0"/><stop offset=".25" stop-color="#326ea4" stop-opacity="0"/><stop offset=".324" stop-color="#285680" stop-opacity=".388"/><stop offset=".467" stop-color="#285680" stop-opacity=".388"/><stop offset=".535" stop-color="#326ea4" stop-opacity="0"/><stop offset=".679" stop-color="#326ea4" stop-opacity="0"/><stop offset=".753" stop-color="#285680" stop-opacity=".388"/><stop offset="1" stop-color="#285680" stop-opacity=".388"/></linearGradient><linearGradient id="d"><stop offset="0" stop-color="#6f8849" stop-opacity=".961"/><stop offset=".429" stop-color="#6f8849" stop-opacity=".961"/><stop offset=".571" stop-color="#60763f" stop-opacity=".961"/><stop offset="1" stop-color="#60763f" stop-opacity=".961"/></linearGradient><linearGradient id="c"><stop offset="0" stop-color="#b3a25a"/><stop offset=".429" stop-color="#b3a25a"/><stop offset=".571" stop-color="#998a46"/><stop offset="1" stop-color="#998a46"/></linearGradient><clipPath id="a"><path d="M8.338 1026.773l1.374.792c.247.1.467.091.629-.02h.002l2.162-1.248c.33-.192.651-.192 1.012 0l2.16 1.248h.002c.15.103.352.122.578.043l2.116-1.22.873-.01.019-3.199H7.525l.144 3.518z" fill="#f11" fill-opacity=".231" stroke-width="5"/></clipPath><clipPath id="b"><path d="M3.349 1010.407l1.373.792c.247.1.468.09.63-.02h.001l2.162-1.248c.33-.193.651-.193 1.012 0l2.16 1.248h.002c.15.102.353.121.578.043l2.117-1.22.873-.01.018-3.2H2.535l.144 3.519z" fill="#f11" fill-opacity=".231" stroke-width="5"/></clipPath><clipPath id="h"><path d="M15.002 1046.663c.018.21-.124.423-.433.583l-5.515 2.844c-.582.303-1.522.302-2.108 0l-5.514-2.844c-.308-.16-.448-.373-.43-.583v-2.118c-.018-.21.122-.422.43-.583l5.514-2.844c.586-.302 1.526-.303 2.108 0l5.515 2.844c.309.16.45.373.433.583z" fill="#ff2c2c" fill-opacity=".243" stroke-width="5"/></clipPath><clipPath id="g"><path d="M8 1040.379c-.38 0-.762.085-1.055.253l-5.515 3.178c-.308.18-.447.416-.43.65-.017.235.122.474.43.653l5.515 3.178c.586.337 1.525.339 2.108 0l5.513-3.178c.31-.178.453-.418.436-.653.017-.234-.127-.472-.436-.65l-5.513-3.178c-.291-.17-.672-.254-1.053-.254z" fill="#ff2c2c" fill-opacity=".243" stroke-width="5"/></clipPath><clipPath id="j"><path d="M8 1039.223c-.38 0-.762.085-1.055.254l-5.515 3.178c-.308.18-.447.416-.43.65-.017.235.122.473.43.653l5.515 3.177c.586.338 1.525.34 2.108 0l5.513-3.177c.31-.179.453-.418.436-.653.017-.234-.127-.472-.436-.65l-5.513-3.178c-.291-.17-.672-.254-1.053-.254z" fill="#ff2c2c" fill-opacity=".243" stroke-width="5"/></clipPath><clipPath id="l"><use xlink:href="#path5683" transform="translate(0 2.308)" width="100%" height="100%"/></clipPath><filter id="m" x="-.066" width="1.133" y="-.139" height="1.278" color-interpolation-filters="sRGB"><feGaussianBlur stdDeviation=".388"/></filter><linearGradient xlink:href="#c" id="f" x1="5.932" y1="15.685" x2="19.937" y2="15.685" gradientUnits="userSpaceOnUse" gradientTransform="matrix(5 0 0 5 -9.656 -15.001)"/><linearGradient xlink:href="#d" id="i" x1="1" y1="1045.726" x2="15.004" y2="1045.726" gradientUnits="userSpaceOnUse"/><linearGradient xlink:href="#e" id="k" gradientUnits="userSpaceOnUse" gradientTransform="matrix(5 0 0 5 15.007 -5174.552)" x1="1" y1="1041.39" x2="15.004" y2="1041.39"/><clipPath id="n"><path d="M54.982 47.584c-.834 0-1.65.24-2.474.72l-10.82 6.247h-.01c-.81.555-1.911.603-3.147.1l-1.472-.85 12.675 7.323c7.58 3.661 18.649-6.573 18.649-6.573l-10.81-6.246c-.903-.481-1.756-.721-2.59-.721z" fill="#a43232" fill-opacity=".375" fill-rule="evenodd"/></clipPath><filter height="2.028" y="-.514" width="1.518" x="-.259" id="o" color-interpolation-filters="sRGB"><feGaussianBlur stdDeviation="1.957"/></filter></defs><path d="M38.157 41.063L22.17 50.282c-1.538.896-2.245 2.08-2.158 3.252V65.37c-.087 1.171.62 2.356 2.158 3.252L49.74 84.52c2.927 1.687 7.626 1.696 10.537 0l27.578-15.898c1.545-.891 2.254-2.08 2.168-3.252V53.534c.086-1.173-.623-2.361-2.168-3.252l-15.996-9.219H38.157z" style="text-decoration-line:none;text-decoration-style:solid;text-decoration-color:#000;isolation:auto;mix-blend-mode:normal" color="#000" overflow="visible" fill="url(#f)" enable-background="accumulate"/><rect transform="matrix(5 0 0 5 15.007 -5168.778)" clip-path="url(#g)" style="text-decoration-line:none;text-decoration-style:solid;text-decoration-color:#000;isolation:auto;mix-blend-mode:normal" width="14.004" height="8.485" x=".997" y="1040.233" ry="0" color="#000" overflow="visible" fill="#b2a257" enable-background="accumulate"/><g transform="matrix(5 0 0 5 15.007 -5174.552)"><g transform="matrix(1 0 0 1.11765 0 -124.192)" clip-path="url(#h)"><rect style="text-decoration-line:none;text-decoration-style:solid;text-decoration-color:#000;isolation:auto;mix-blend-mode:normal" width="14.004" height="9.818" x="1" y="1040.818" ry="0" color="#000" overflow="visible" fill="url(#i)" enable-background="accumulate"/></g><rect style="text-decoration-line:none;text-decoration-style:solid;text-decoration-color:#000;isolation:auto;mix-blend-mode:normal" width="14.004" height="9.24" x="1" y="1039.08" ry="0" clip-path="url(#j)" color="#000" overflow="visible" fill="#748d4d" enable-background="accumulate"/></g><path d="M55.006 10.014c-1.904.001-3.81.426-5.274 1.27L22.158 27.176c-1.538.897-2.237 2.085-2.15 3.256v11.553c-.083 1.122.576 2.256 1.984 3.137l9.668 5.57 6.871 3.959c1.236.504 2.337.455 3.147-.1h.01l10.82-6.246c1.648-.961 3.26-.961 5.064 0l10.81 6.246h.01c.753.515 1.763.61 2.893.215l10.596-6.097 6.295-3.666c1.293-.861 1.917-1.944 1.838-3.02l-.002-11.55c.086-1.174-.625-2.366-2.17-3.257L60.27 11.284c-1.456-.849-3.36-1.271-5.264-1.27z" style="text-decoration-line:none;text-decoration-style:solid;text-decoration-color:#000;isolation:auto;mix-blend-mode:normal" color="#000" overflow="visible" fill="#326ea4" fill-opacity=".941" enable-background="accumulate"/><path d="M55.008 10c-1.904 0-3.81.416-5.273 1.26L22.16 27.157c-1.538.896-2.236 2.08-2.149 3.251-.083 1.122.574 2.253 1.983 3.135l9.667 5.576 6.874 3.954c1.235.504 2.335.454 3.144-.096h.01l10.82-6.241c1.648-.962 3.262-.962 5.067 0l10.81 6.24h.01c.752.512 1.76.607 2.89.214l10.594-6.093 6.289-3.672c1.293-.861 1.924-1.941 1.845-3.017.086-1.173-.632-2.36-2.177-3.251L60.27 11.26c-1.455-.849-3.359-1.261-5.263-1.26z" style="text-decoration-line:none;text-decoration-style:solid;text-decoration-color:#000;isolation:auto;mix-blend-mode:normal" color="#000" overflow="visible" fill="#629bc9" fill-opacity=".519" enable-background="accumulate"/><path d="M20.008 30.432v11.553c-.083 1.122.576 2.256 1.984 3.137l9.668 5.57 6.871 3.959c1.236.504 2.337.455 3.147-.1h.01l10.82-6.246c1.648-.961 3.26-.961 5.064 0l10.81 6.246h.01c.753.515 1.763.61 2.893.215l10.596-6.097 6.295-3.666c1.293-.861 1.917-1.944 1.838-3.02l-.002-11.16c-.09.935-.713 1.853-1.84 2.603l-6.29 3.672-10.595 6.094c-1.13.393-2.138.298-2.89-.215h-.01l-10.81-6.24c-1.806-.962-3.42-.962-5.07 0l-10.82 6.242h-.01c-.809.55-1.908.6-3.144.096l-6.875-3.955-9.668-5.576c-1.398-.876-2.055-1.998-1.982-3.112z" style="text-decoration-line:none;text-decoration-style:solid;text-decoration-color:#000;isolation:auto;mix-blend-mode:normal" color="#000" overflow="visible" fill="url(#k)" enable-background="accumulate"/><path transform="translate(.002 -1035.495)" clip-path="url(#l)" d="M8 1039.225c-.38 0-.762.083-1.055.252l-5.515 3.18c-.308.18-.447.416-.43.65-.017.225.115.451.396.627l1.934 1.115 1.375.791c.247.101.467.091.629-.019h.002l2.164-1.248c.33-.192.653-.192 1.014 0l2.162 1.248h.002c.15.103.352.122.578.043l2.119-1.219 1.258-.734c.258-.172.385-.389.369-.604.017-.234-.126-.472-.436-.65l-5.513-3.18c-.291-.17-.672-.252-1.053-.252z" opacity=".245" fill="#a6c5df" filter="url(#m)"/><text y="63.463" x="105.577" style="line-height:125%;-inkscape-font-specification:'Titillium Web Ultra-Light'" font-weight="200" font-size="62.5" font-family="Titillium Web" letter-spacing="0" word-spacing="0" fill="#444"><tspan style="line-height:125%;-inkscape-font-specification:'Titillium Web Ultra-Light';text-align:start" y="63.463" x="105.577" dx="0 -2.0452137 -0.81808555 1.636171 -1.636171 -0.40904275 -2.8632994"><tspan dx="0 -2.0452137 0 1.636171 -2.0452137 -0.73990548 -2.8632994">wetland</tspan></tspan></text><path clip-path="url(#n)" d="M55.47 45.787L45.19 50.06l-5.755 4.813c1.891.478 7.765-2.254 8.912-2.916l5.097-3.013c2.114-1.22 3.157-.957 4.128-.64-.902-.48-1.268-2.517-2.102-2.517z" fill="#596f3a" fill-opacity=".601" fill-rule="evenodd" filter="url(#o)"/></svg>